<svg xmlns="http://www.w3.org/2000/svg" viewBox="0 0 1440 320"><path fill="#162234" fill-opacity="1" d="M0,288L15,272C30,256,60,224,90,197.3C120,171,150,149,180,117.3C210,85,240,43,270,58.7C300,75,330,149,360,165.3C390,181,420,139,450,138.7C480,139,510,181,540,208C570,235,600,245,630,240C660,235,690,213,720,181.3C750,149,780,107,810,106.7C840,107,870,149,900,138.7C930,128,960,64,990,64C1020,64,1050,128,1080,154.7C1110,181,1140,171,1170,192C1200,213,1230,267,1260,240C1290,213,1320,107,1350,85.3C1380,64,1410,128,1425,160L1440,192L1440,0L1425,0C1410,0,1380,0,1350,0C1320,0,1290,0,1260,0C1230,0,1200,0,1170,0C1140,0,1110,0,1080,0C1050,0,1020,0,990,0C960,0,930,0,900,0C870,0,840,0,810,0C780,0,750,0,720,0C690,0,660,0,630,0C600,0,570,0,540,0C510,0,480,0,450,0C420,0,390,0,360,0C330,0,300,0,270,0C240,0,210,0,180,0C150,0,120,0,90,0C60,0,30,0,15,0L0,0Z"></path></svg>