<svg xmlns="http://www.w3.org/2000/svg" viewBox="0 0 1440 320"><path fill="#194838" fill-opacity="1" d="M0,32L21.8,48C43.6,64,87,96,131,112C174.5,128,218,128,262,149.3C305.5,171,349,213,393,192C436.4,171,480,85,524,64C567.3,43,611,85,655,138.7C698.2,192,742,256,785,256C829.1,256,873,192,916,176C960,160,1004,192,1047,213.3C1090.9,235,1135,245,1178,224C1221.8,203,1265,149,1309,112C1352.7,75,1396,53,1418,42.7L1440,32L1440,320L1418.2,320C1396.4,320,1353,320,1309,320C1265.5,320,1222,320,1178,320C1134.5,320,1091,320,1047,320C1003.6,320,960,320,916,320C872.7,320,829,320,785,320C741.8,320,698,320,655,320C610.9,320,567,320,524,320C480,320,436,320,393,320C349.1,320,305,320,262,320C218.2,320,175,320,131,320C87.3,320,44,320,22,320L0,320Z"></path></svg>